<?xml version="1.0" encoding="UTF-8"?>
<svg xmlns="http://www.w3.org/2000/svg" x="0px" y="0px" viewBox="0 0 1920 326" width="283" height="48">
<style type="text/css">
	.st0{fill:#2727FF;}
	.st1{fill:#FFFFFF;}
	.st2{fill:#1C1C1C;}
</style>
<g>
	<g>
		<polygon class="st2" points="463.08,70.31 463.08,95.26 512.83,95.26 512.83,256.43 543.39,256.43 543.39,95.26 592.93,95.26 
			592.93,70.31 		"/>
		<polygon class="st2" points="768.3,70.1 732.97,70.1 666.31,256.43 698.11,256.43 750.63,107.04 802.81,256.43 834.96,256.43 		
			"/>
		<polygon class="st2" points="947.97,231.83 947.97,70.32 917.42,70.32 917.42,256.43 1010.89,256.43 1010.89,231.83 		"/>
		<path class="st2" d="M1257.21,113.97c-8.45-14.41-19.89-25.7-34.44-33.88c-14.55-8.1-30.55-12.12-48.09-12.12
			c-17.25,0-33.19,4.02-47.74,12.12c-14.55,8.18-26.05,19.47-34.58,33.88c-8.45,14.48-12.68,30.84-12.68,48.99
			c0,18.22,4.23,34.64,12.68,49.13c8.52,14.62,20.02,25.91,34.58,34.02c14.55,8.11,30.49,12.2,47.74,12.2
			c17.53,0,33.54-4.09,48.09-12.2c14.55-8.11,25.99-19.4,34.44-34.02c8.39-14.48,12.54-30.9,12.54-49.13
			C1269.76,144.8,1265.6,128.45,1257.21,113.97 M1230.26,199.26c-5.4,10.46-12.96,18.5-22.59,24.12
			c-9.63,5.61-20.65,8.45-32.98,8.45c-12.27,0-23.28-2.84-32.91-8.45c-9.63-5.62-17.18-13.66-22.59-24.12
			c-5.47-10.46-8.18-22.52-8.18-36.31c0-13.72,2.7-25.78,8.18-36.1c5.4-10.39,12.96-18.29,22.59-23.84
			c9.63-5.54,20.65-8.31,32.91-8.31c12.33,0,23.35,2.77,32.98,8.31c9.63,5.55,17.18,13.44,22.59,23.84
			c5.47,10.33,8.18,22.38,8.18,36.1C1238.44,176.74,1235.73,188.8,1230.26,199.26"/>
		<polygon class="st2" points="1469.24,70.31 1346.6,70.31 1346.6,96.85 1432.8,96.85 1346.6,232.59 1346.6,256.43 1469.24,256.43 
			1469.24,229.96 1382.77,229.96 1469.24,94.15 		"/>
		<polygon class="st2" points="1659.1,94.98 1659.1,70.11 1556.27,70.11 1556.27,256.43 1659.1,256.43 1659.1,231.55 
			1586.76,231.55 1586.76,174.52 1651.06,174.52 1651.06,149.58 1586.76,149.58 1586.76,94.98 		"/>
		<polygon class="st2" points="1872.44,70.1 1872.44,208.76 1780.63,70.1 1750.07,70.1 1750.07,256.43 1780.63,256.43 
			1780.63,117.5 1872.44,256.43 1903,256.43 1903,70.1 		"/>
	</g>
	<g>
		<path class="st0" d="M170.01,315.84c62.75,0,116.62-37.81,140.11-91.9H29.94C53.44,278.02,107.3,315.84,170.01,315.84z"/>
		<path class="st0" d="M170.01,10.42c-84.33,0-152.69,68.36-152.69,152.69c0,13.84,1.83,27.2,5.31,39.94h62.83v-76.8l84.55-57.7
			l84.55,57.7v76.8h62.88c3.48-12.75,5.31-26.11,5.31-39.94C322.74,78.78,254.38,10.42,170.01,10.42z"/>
	</g>
</g>
</svg>