<?xml version="1.0" encoding="UTF-8"?>
<svg id="Layer_1" data-name="Layer 1" xmlns="http://www.w3.org/2000/svg" viewBox="0 0 209.5 97.2">
  <defs>
    <style>
      .cls-1 {
        fill: #ec1c24;
      }

      .cls-2 {
        fill: #231f20;
      }

      .cls-3 {
        fill: #2a9a48;
      }
    </style>
  </defs>
  <path class="cls-1" d="m192.77,68.42l.04.18.33,2,.18.21.2.23.55.22.94.11h1.55l.67-.06.61-.17.78-.39,1-1,.89-1.22.61-1.11.56-1.44.44-1.05.44-1.22.39-1.16.22-.61v-.04s.06-.63.06-.63l-.06-1.28-.56.22-.89.61-.61.67-.44.67-.39,1.05-.67,1.61-.39.89-.56,1-.61.61-.6.6h-.01s-.03-.01-.03-.01l-.25-.2-.61-.61-.5-.5h-.44v-.03s-.33-1.86-.33-1.86l-.17-1.44-.11-1.55.06-1.33.11-.67.22-.33v-.05s-.11-.34-.11-.34l-.28-.11-.56.17-.61.22-.55.33-.22.19-.22.2-.55.39-.56-.06-.28-.28-.17-.44.11-.61.22-.44.22-.55v-.02s.06-.37.06-.37h-.56l-1,.33-1,.67-1.28,1.28-1.28,1.27-1.44,1.55-1.05.94-1.33.61-1.22.33-1.61.44-2,1.16-1.66.89-2.22,1.39-2.27,1.28-1.44.72-.89.39-1.11-.06-1.11-.11-1.22-.28h0s-1.16-.5-1.16-.5l-.28-.61-.17-1.11v-1.28l.28-.89.39-1,.67-1.33,1-2.11,1.22-2.66,1.05-2.22.89-1.61,1.05-1.5.76-.77v-.04s-.02-.01-.02-.01l-.63-.79-.94.28-1.22.39-1.94.67-.55.33-.5.67-.61,1.05-.67,1.11-.72,1.33-1.05,1.39-1,1.05-1.11,1-1.16.94-1.22,1.05-1.44,1.39-.45.45-.1.1-.61,1.11-.72,1.22-.72,1.05-.72.72-.89.67-.89.55-1.11.39.03.05.42.78.72.28.45.04h.16s.61-.21.61-.21l.83-.67,1.22-.78,2-1.33,2.33-1.44.61-.61.39-.06.22.06.39.17.44.44.17.55v.39l.02.12.09.55.67,1.22,1,1.66h.38s1.12.17,1.12.17l1.22.28,1.11.39,1.61.28,1,.06.72-.11,1-.44.94-.33,2.5-1.22,1.39-.72,1.94-.89,2-.83,1.44-.55,1.39-.33.89-.17-.06,1.72-.94.59-.12.08v.33l.17,1.5.28,1.11.33.33h.33s.39-.17.39-.17l.44-.17.44-.17.28-.39.5-.78,1-1.22.94-1.16,1.05-1,1-.94.67-.61.56-.28h.28l.22.06.55,1.28.13.6Zm-47.1-37.62l-.05.71-.67,1.44-.78,1.11-.94,1.22-1.22,1.72-1.78,2-1.89,2.27-2.33,2.27-1.94,2-1.83,1.61-2.05,2.16-1.83,1.89-1.66,1.88-.83.97-.17.2-.61.89-.78,1.44-.61.72-.67.06v-1.77l.55-.72.5-1.05.55-1.11.44-1.05.78-1.94.78-1.61,1.55-2.38,1.16-1.77,1.5-2.05,1.39-1.77,1.72-2.16,2.22-2.11,1.5-1.44,2.66-2.11,1.77-1.28,1.44-.72.89-.39.78-.22h.83l-.06.39-.22.39-.11.33h0Zm13.37,23.52l.15-.4-.1-.47-.47-.47-.47-.58-.9-.68-1.16-.84-1.32-.9-.47-.21-.58.21-.84.42-.47.53-.1.53-.11.63.11.63.37.53.53.42.37.47.26.74.1,1.32v1.32l-.05,1.32-.16.9-.42,1.42-.37,1.32-.53,1.16-.42,1-.58,1.05-.26.26h-.37l-.74-.47-.63-.74-.9-1.53-.79-1.84-.63-1.63-.47-1.16-1,.53-.79.58-.84.84-.95,1-.79.9-.63.68-.74.95-.58.69-.37.53-.42.53-.2.37-.12.21-.42.63-.32.53-.58.47-.47.42-.74.21-.47.11.32-1.47.58-1.48.84-1.69,1.21-2.16,1.42-2.37,1.63-2.58,1.21-1.9,1.21-1.47.84-1,.47-.42.21-.05.42-.1.37-.16-.58-.68-.69-.42-.58-.32-.69-.26-.53.79-1,1.42-1.16,1.26-1.26,1.37-1,1.21-1.16,1.32-1.26,1.47-.74,1.16-.74,1.11-.58,1.16-.74,2.11-.58,1.84-.47,1.32-.32,1-.42,1.32-.26.74-.74.16-1.05-.05-.9-.11-.95-.16-1-.37-1.16-.37-1.9-.74-3.32-1.47.26-2.63.13-.49.35-1.31.68-2.48.26-.74,2.05-2.27,2-2.26,1.47-1.74,1.74-1.58,1.79-1.58,1.79-1.79,2.11-2.05,2.11-2.16,1-1.32,2.9-3.79,3.11-4.16,2.27-3.16,1.48-1.95,1.21-1.69.08-.08.19-.19-.11-.53-.63-.42-.79.05h-1l-1,.16-1.16.42-1.53.74-2.16,1.42-2.53,1.79-3,2.37-1.84,1.69-2.48,2.69-2.05,2.42-2.27,2.84-2.37,3.48-2.74,4.11-3.27,5.27-.68,1.74-.74,1.58-.58,1.47-.42,1.11-.42,1-.32.68-.42.53-.84.63-1.53.68-1.16.42-1.21.53-1.21.58-.47.26-.42.26-.58.16-.9-.16-.84-.21-.57-.07-.27-.03-.74-.05-.11-.63-.26-.53-.21-.79-.21-.79v-.63l.63-.79.53-.53.21-.26-.27-.2-.52-.38-.79.63-.58.68-.47.84-.68,1.11-.63,1-1,.9-1.16,1-1.11.74-1.05.53-1.21.74-1.21.47-.79.37-.9.16-.51.17-.12.04-.58.63-.9-.63.26-1.42.26-1.84.37-1.37.11-.74,1.58-1.79,1.74-1.74,1-.95,1-1,1.26-1.21,1.48-1.16,1.21-.9,1.32-.53,1.11-.58.69-.11h.37l.26.42v.47l.63.16.32.26.05-.74.16-.68.21-.26.37-.16h.37l.26.21v-.08s-.05-.87-.05-.87l-.11-.53-.32-.42-.63-.26-1.11-.21-1.74-.21-1.61.09-.83.7-1.08,1.02-1.27.95-1.4,1.21-1.72,1.52-1.78,1.46-1.4,1.59-1.27,1.27-.83,1.14-.89,1.27-.76,1.21-.25,1.08-.25,1.08v1.84l.19.95.38.95.51.7.44.51.14.02.75.11,2.29-.13,1.65-.32,1.4-.76,1.59-1.08,1.21-.83,1.33-.7,1.27-.32,1.27-.19,1.14.13.95.32,1.08.38,1.65.19,1.59-.32,1.97-.7,3.24-1.33,1.72-.76,1.21-.7.95-.83.51-.76.32,2.1.03.13.28,1.14.28,1.15.32.63,1,.79h0s.21-.68.21-.68l.74.47,1,.53,1.05.37,1.42.32,1.84.21,3,.1,6.69.05.63-.9.63-.84.63-.84,1.26-1.16,1.21-1.26,1.16-1.11,1-1,.47-.68.37-.47.32-.42.32-.05.47.11.47.32.21.53.12.42.04.15.32.42.47.84.15.25.17.28.63.37.68.74.53.32.74.32.84.21s.1.02.28.06c.32.29.83.04.81-.39.21-.34.7-1.15.7-1.15l.79-1.11,1.16-1.74.79-1.74.63-1.58.26-1.53.05-1.42v-2.53l.16-1.32.69.05.74-.05.42-.11.37-.42.26-.05.37.05v-.03Zm-103.02-12.09l1.36.37,2.16.57,2.29.38,2.35.25,1.72-.06,1.4-.25,1.84-.51,1.52-.64,1.78-.44,1.72-.13,2.16.13,2.22.64,2.54,1.08,2.41,1.65.76.7.13.1.37.28.64,3.56.51,2.73.32,1.84v.95l-.32.76-.64,1.08-1.59,1.65-1.4,1.14-1.21,1.14-1.02,1.08-.89,1.02-1.21,1.21-1.46,1.52-1.14.89-.44.25-1.97.06-2.48,2.54-4.83.06-1.08,1.78h-7.31l-1.21,1.59-.44.44-.83.19-1.59.13h-3.43s-1.78-.13-2.1-.13l-1.65-.19-1.46-.06-1.21.13-1.33.25-1.08.25-.57.32-1.97-.13-.38-.95,1.27-.64,1.21-.64.95-.63,1.08-1.21.38-.13h.25v-1.78l-.95-.13-.83.06-.57.06-.44.25-.51.06-.7-.19-.89-.44-.95-.44-.12.09-.14.1-.51-.95-.19-.64v-.38l.57-.76.38-.76.57-1.27.44-1.02,1.33-2.41,1.65-3.11,1.78-3.05,1.84-3.11,1.71-2.79,1.72-2.54,1.91-2.98,1.72-2.67,1.33-1.84,1.02-1.27,1.14-1.4.95-1.33,1.21-1.65.95-1.59,1.21-1.33.83-.83.64-.06.29.05.09.02-.76-1.4-.51-.7-.64-.7-.7,1.14-1.02,1.65-1.14,1.27-.64.83-.89,1.02-1.14,1.33-1.27,1.59-2.03,2.35-1.97,2.41-2.73,3.87-2.48,3.87-2.73,4.32-4.7,7.37-3.88,6.48-3.3,5.21-2.54,3.94-1.91,2.54-2.03,2.41-2.1,2.6-2.67,3.11-3.43,3.75-2.67,3.05-.44-1.14-.19-.89-1.59-.06-.95.13-.89.19.51,1.4.32,1.4.7,1.78.38.89.51.44.38.06,1.08-.89.51-.76.57-.38s.7-.89.89-1.02l1.02-.7,1.02-.57,1.14-.32,1.27-.44,1.08-.38.76-.7.7-1.46,1.02-1.52,2.8-2.6,3.37-2.8,3.11-3.05,6.29.06,8.45-.25,6.86-.13h4.64l.57-.25.57-.64.89-1.14h7.56l2.6-.06,1.08-1.52,2.6-.25,2.22-.32,1.02-.06,1.08-.83,1.84-1.27,1.91-1.33,2.29-1.59,1.91-1.27,1.84-4.26,2.22-1.91.83-1.02.44-.89.19-1.91-.19-2.73-.13-2.35.19-.51.32-.64-.64-1.21-.95-.83-1.52-1.27-1.33-1.02-1.33-1.46-1.46-1.71-1.72-1.97-1.33-1.4-1.27-.89-1.4-.83-1.46-.32h-.89l-.64.19-.34.17-.17.09-.51-1.08.06-1.08,1.84-2.22,4.51-4.32,2.67-2.86,1.65-1.91,1.78-1.59,2.67-2.54,1.72-1.78,1.46-2.1.83-1.65.51-1.78.19-1.78-.13-1.91-.57-2.22-.19-.41-.19-.42-1.21-1.21-2.73-1.78-1.78-1.08-.89-.25-1.21-.13-1.78.13-.32-.89-.51-.57-.7-.38-1.02-.19-1.14.06-1.14.13-1.46.19-1.27.25-1.08.06-.95.13-.95-.19-1.02-.32-.76-.25h-.76s-.51.02-.83.04c-1.27.06-2.41.02-2.45,1.46-.05.21-.09.4-.09.4h-2.03s-1.33-.13-1.33-.13l-1.91.06-.57.13-.38.25-.38.38-.38.64-.38.83h-4.64l-.95,1.52h-3.05l-2.22,2.29-2.1-.13-1.21.32-2.35,1.27-2.22,1.46-5.08,4.13-2.86,2.6-2.48,2.67-1.65,1.78-1.02,1.4-1.08,1.02-1.72,1.71-.89.76-.76.76-.25.51-.13.38-.25,3.49-1.21,2.6-.51,1.4-.51,1.65-.13,1.4-.13,2.16v.64l.95-.38.1-.44.09-.38.95-1.14.83-1.65.7-1.71.44-1.97.64-2.41.76-1.59,1.59-2.35,1.97-2.16.32-.57,1.21-1.27.7-.64.51-.63,1.65-1.21,1.02-.83,1.97-1.52,1.91-1.59,1.21-1.4.64-1.21.51-1.59,1.02-.25.76-.38.7-.83.83-.64.95-.44,1.02-.13,1.21-.19h1.08l.7-.32.7-.57,1.02-1.52.38-.57,1.84-.32,2.73-.38,1.21-1.08,3.94-.44,3.3-1.78,5.21.06,1.84-.19,2.29-.25,2.73-.44,3.11.06,1.27.13,1.08.7,1.65.83,2.35,1.52,1.91,1.4,1.02,1.14.57.89.32.7v1.4l-.32,1.46-1.02,1.91-.89,1.65-1.08,1.71-.44.83-.25.7-.19,1.52-.13,1.02-.45.76-.64.64-.95.57-1.27.38-.76.38-.89.89-1.52,1.52-1.84,2.03-.38.25-.83.13h-3.3l-.25,1.71-2.8,2.1h-3.94l-.7,1.84-2.86.13-1.84.89-1.4.89-1.08.76-1.14,1.08-1.08,1.27.89,1.21h.04Z"/>
  <path class="cls-2" d="m192.77,68.42l-.13-.6-.55-1.28-.22-.06h-.28l-.56.28-.67.61-1,.94-1.05,1-.94,1.16-1,1.22-.5.78-.28.39-.44.17-.44.17-.39.17-.02,1.46,1.95.22,1.34-1.5,1.06-1.28,1.17-1.45.95-1.17.78-.78.72-.33.5-.11Zm2.63-9.07v.05s-.21.33-.21.33l-.11.67-.06,1.33.11,1.55.17,1.44.33,1.86.21-.11.5-.33.33-.67.11-1.67-.17-1.39-.17-1.45-.11-1.11-.28-.33-.66-.15Zm-3.53-1.35v.02s-.22.55-.22.55l-.22.44-.11.61.17.44.28.28.56.06.55-.39.22-.2.02-.42-.06-.67-.33-.45-.56-.28h-.29Zm-8.54,12.03l.94-.59.06-1.72-.89.17-1.39.33-1.44.55-2,.83-1.94.89-1.39.72-2.5,1.22-.94.33-1,.44-.72.11-1-.06-1.61-.28-1.11-.39-1.22-.28-1.12-.16-.11.94.84.56.95.61,1.11.61,1.34.17,1.28.06,1.5-.28,2.12-.72,3.18-1,2.68-1.17,3.73-1.56.65-.34Zm-7.31-25.41l-.02.09m-4.06,8.16l-.76.77-1.05,1.5-.89,1.61-1.05,2.22-1.22,2.66-1,2.11-.67,1.33-.39,1-.28.89v1.28l.17,1.11.28.61,1.16.5h0s-.06-.84-.06-.84v-1.06l.39-1.28.5-2.06.95-2.34,1.11-2.51,1.23-2.12,1.23-1.56,1.11-1.39-.76-2.4Zm-10.01,15.85l-.02-.12v-.39l-.17-.55-.44-.44-.39-.17-.22-.06-.39.06-.61.61-2.33,1.44-2,1.33-1.22.78-.83.67-.61.22h-.16s-.25.33-.25.33l-.22.28.39.5.56.39.67-.11.61-.17.84-.33,1.23-.67.95-.61,1.28-.67,1.67-1.11,1.17-.84.49-.37Zm-10.97,2.26l-.03-.05,1.11-.39.89-.55.89-.66.72-.72.72-1.05.72-1.22.61-1.11.1-.1.02-.33.39-1.23.28-1.17.22-1.39-.06-1.45-.17-1.5-.06-.5.06-.39.56-.45.67-.39.67-.33.39-.28.06-.61-.39-.39-.29-.39v.03s-.38-.05-.38-.05l-.26.05-.37.42-.42.11-.74.05-.68-.05-.16,1.32v2.53l-.05,1.42-.26,1.53-.63,1.58-.79,1.74-1.16,1.74-.79,1.11s-.49.8-.7,1.15c.02.43-.49.67-.81.39-.18-.04-.28-.06-.28-.06l-.84-.21-.74-.32-.53-.32-.68-.74-.63-.37-.17-.28v.11l.28.84.56.84.95,1.11.84.67.84.33h.55Zm-4.84-18.85l-.21.05-.47.42-.84,1-1.21,1.47-1.21,1.9-1.63,2.58-1.42,2.37-1.21,2.16-.84,1.69-.58,1.48-.32,1.47.47-.11.74-.21.47-.42.58-.47.32-.53.42-.63.12-.21.09-.35.33-1.11.39-1,.56-.84.61-.89.72-.95.78-1,.84-1.06,1-1.23c.11-.17.67-1,.67-1l.67-1.17.67-1.17.33-.89.39-.06-.33-.56-.5-.5-.38-.23Zm-.15,13.28l-.12-.43-.21-.53-.47-.32-.47-.11-.32.05-.32.42-.37.47-.47.68-1,1-1.16,1.11-1.21,1.26-1.26,1.16-.63.84-.63.84-.63.9-6.69-.05-3-.1-1.84-.21-1.42-.32-1.05-.37-1-.53-.74-.47-.21.68.09.24.45.67,1.06.84,1.17.67,1,.33,1.23.28,1.39.11h3.46l2.62-.11,4.4-.17.84-1,1.23-1.34,1.17-1.28,1.28-1.28,1.17-1.23,1.17-1.17.95-1.11.58-.44Zm-.31-34.61h0s.11-.35.11-.35l.22-.39.06-.39h-.83l-.78.22-.89.39-1.44.72-1.77,1.28-2.66,2.11-1.5,1.44-2.22,2.11-1.72,2.16-1.39,1.77-1.5,2.05-1.16,1.77-1.55,2.38-.78,1.61-.78,1.94-.44,1.05-.55,1.11-.5,1.05-.55.72v1.77l.67-.06.61-.72.78-1.44.61-.89.17-.2.13-.28,1-1.56,1.17-2.23,1.84-2.95,1.67-2.45,2.06-2.73,1.56-1.73,1.06-1.34,2.01-1.73,1.62-1.28,1.67-1.11,1.62-1.34,1.45-1.28.84-1.06.1-.17Zm-26.82,36.89l-.03-.13-.32-2.1-.51.76-.95.83-1.21.7-1.72.76-3.24,1.33-1.97.7-1.59.32-1.65-.19-1.08-.38-.95-.32-1.14-.13-1.27.19-1.27.32-1.33.7-1.21.83-1.59,1.08-1.4.76-1.65.32-2.29.13-.75-.11v.04s.06.72.06.72l.48.54.6.42.54.42.48.24,1.26-.12,1.2-.54,1.14-.48,1.08-.6,1.2-.78.6-.3,1.69-1.08.78-.36,1.02-.36,1.08.06,2.47.06,2.71.12,2.47.12,1.08-.48,1.99-.84,2.77-1.26,1.69-1.02.54-.36.15-.5Zm31.09-39.24l-.08.08-1.21,1.69-1.48,1.95-2.27,3.16-3.11,4.16-2.9,3.79-1,1.32-2.11,2.16-2.11,2.05-1.79,1.79-1.79,1.58-1.74,1.58-1.47,1.74-2,2.26-2.05,2.27-.26.74-.68,2.48-.35,1.31.89-.93,4.1-4.7,3.49-3.73,2.05-2.29,2.77-2.47,3.31-3.25,1.81-1.81,1.2-1.81,1.57-2.05,2.29-3.61,2.53-3.61,1.81-2.41,1.02-1.45-.44-1.99Zm-42.6,27.54v.08s-.26-.21-.26-.21h-.37l-.37.16-.21.26-.16.68-.05.74-.32-.26-.63-.16v-.47l-.26-.42h-.37l-.69.11-1.11.58-1.32.53-1.21.9-1.48,1.16-1.26,1.21-1,1-1,.95-1.74,1.74-1.58,1.79-.11.74-.37,1.37-.26,1.84-.26,1.42.9.63.58-.63.12-.04.07-.3.24-.66c.06-.24.54-1.32.54-1.32l.84-1.99.48-1.14.6-.9.66-.72.96-.84.96-.72,1.02-.72,1.14-.78.9-.48.84-.54c.18-.12,1.02-.66,1.02-.66l.72-.54.72-.72.36-.12.42.06.3.3.12.9.06,1.63-.06.96-.33.37.27.2-.21.26-.53.53-.63.79v.63l.21.79.21.79.26.53.11.63.74.05.27.03.11-.19.48-.6.66-.36.66-.54-.06-3.85,1.81-4.21-2.2-2.2Zm-22.95-9.93l-.13-.1-.76-.7-2.41-1.65-2.54-1.08-2.22-.64-2.16-.13-1.72.13-1.78.44-1.52.64-1.84.51-1.4.25-1.71.06-2.35-.25-2.29-.38-2.16-.57-1.36-.37.44.64.94.88,1.16.77,1.38.55,1.55.11h2.1l2.43-.17,1.66-.22,1.88-.44,2.1-.44,2.1-.11h2.15l1.49.11,1.27.17,1.82.66,1.27.61,1.05.5.94.17.63.05Zm4.95-35.15v-.33l-.32-.7-.57-.89-1.02-1.14-1.91-1.4-2.35-1.52-1.65-.83-1.08-.7-1.27-.13-3.11-.06-2.73.44-2.29.25-1.84.19-5.21-.06-3.3,1.78-3.94.44-1.21,1.08-2.73.38-1.84.32-.38.57-1.02,1.52-.7.57-.7.32h-1.08l-1.21.19-1.02.13-.95.44-.83.64-.7.83-.76.38-1.02.25-.51,1.59-.64,1.21-1.21,1.4-1.91,1.59-1.97,1.52-1.02.83-1.65,1.21-.51.63-.7.64-1.21,1.27-.32.57-1.97,2.16-1.59,2.35-.76,1.59-.64,2.41-.44,1.97-.7,1.71-.83,1.65-.95,1.14-.09.38.08.77.11.55.11.39h.22l.39-.22.55-.5.72-1.1.44-1.1.55-1.33.61-1.55.5-1.66.55-1.66.39-1.16.55-1.16.94-1.44,1.27-1.6,1.44-1.6,1.66-1.33,1.93-1.44,2.21-1.71,1.16-.88,1.16-.99.77-.88.61-1.1.5-1.33.44-.88.39-.72.39-.44.77-.11.77-.17.55-.22.5-.61.55-.77.22-.22.83-.28,1.38-.22,1.11-.17.83-.06.55-.17.61-.77.72-1.1.44-.61.28-.22.66-.11,1.27-.06,1.33-.17.66-.11.77-.66.83-.61.55-.17,2.1.06h2.82l.99-1.16,1.05-.99.44-.17,1.05-.17h4.7l1.44-.06,1.77-.06h2.76l4.97.11,3.48,2.6,3.26,2.65.66.03Zm3.62-3.53l.19.41.57,2.22.13,1.91-.19,1.78-.51,1.78-.83,1.65-1.46,2.1-1.72,1.78-2.67,2.54-1.78,1.59-1.65,1.91-2.67,2.86-4.51,4.32-1.84,2.22-.06,1.08.51,1.08.17-.09.17-.12,1.16-.88,1.49-1.38,1.6-1.66,1.16-1.38,1.49-1.88,1.27-1.38,1.55-1.77,1.66-1.55,2.43-2.1,1.93-1.88,1.77-1.99,1.33-2.04.77-1.88.44-2.26.11-.77-.06-2.04-.22-1.44-.72-1.38-.83-1.22-.19-.13Zm-31.41,20.78l-.29-.05-.64.06-.83.83-1.21,1.33-.95,1.59-1.21,1.65-.95,1.33-1.14,1.4-1.02,1.27-1.33,1.84-1.72,2.67-1.91,2.99-1.72,2.54-1.71,2.79-1.84,3.11-1.78,3.05-1.65,3.11-1.33,2.41-.44,1.02-.57,1.27-.38.76-.57.76v.38l.19.64.51.95.14-.1.81-.92.75-1.08.85-1.65.94-1.7.85-1.74,1.13-2.4,1.46-2.73,1.18-1.89,1.18-1.84.8-1.6,1.23-1.74,1.6-2.59,1.98-2.92,1.98-2.78,2.22-2.78,1.18-1.27,1.32-1.41,1.65-2.45,1.04-1.51.42-.8.33-.61-.24-.85-.31-.31Zm-18.42,42.06h-.23l-.38.13-1.08,1.21-.95.63-1.21.64-1.27.64.38.95,1.53.1c.24-.07.44-.12.44-.12l1.13-.66.85-.52.85-.66.42-.57.19-.57.05-.52-.24-.33-.28-.33-.2-.02Zm161.02-6.11h0s-.17-1.12-.17-1.12l-.5-.84-.29-.27v.04s-.23.61-.23.61l-.39,1.16-.44,1.22-.44,1.05-.56,1.44-.61,1.11-.89,1.22-1,1-.78.39-.61.17-.67.06h-1.55l-.94-.11-.55-.22-.2-.23v.12s.23.72.23.72l.17.61.33.5.33.39.5.28.89.11,1.06-.22,1-.39,1.34-.78,1.23-.72,1-1,1-1.39.84-1.34.61-1.5.22-.95.06-1.11Zm-113.38-12.76l-.16.32-.19.51.13,2.35.19,2.73-.19,1.91-.44.89-.83,1.02-2.22,1.91-1.84,4.26-1.91,1.27-2.29,1.59-1.91,1.33-1.84,1.27-1.08.83-1.02.06-2.22.32-2.6.25-1.08,1.52-2.6.06h-7.56l-.89,1.14-.57.64-.57.25h-4.64l-6.86.13-8.45.25-6.29-.06-3.11,3.05-3.37,2.8-2.8,2.6-1.02,1.52-.7,1.46-.76.7-1.08.38-1.27.44-1.14.32-1.02.57-1.02.7c-.19.13-.89,1.02-.89,1.02l-.57.38-.51.76-1.08.89-.11-.02.03.13.14.58.1.48.38.19.53-.1.62-.34.72-.43s.38-.48.53-.58l.67-.72.53-.67.91-.67,2.02-.72,1.39-.58.96-.43.53-.43.38-.67.19-.82.29-.58,2.35-2.21,1.87-1.78,2.74-2.5,2.26-1.92,1.01-.86,7.97-.14,9.84-.05,5.47-.14h2.88l.58-.38.82-1.1.86-.82h5.28l5.14-.14.62-1.25,3.36-.43,1.68-.24.77-.14,1.06-.58,2.11-1.58,1.34-1.1,1.49-1.15.77-.53.77-.29.91-.19.48-.14.43-.43.77-1.01.58-1.2.67-1.44,1.01-1.63.48-1.01.72-1.01.62-.58.34-.19.05-2.98v-4.51l-.24-1.3-.24-.67-.18-.32Z"/>
  <path class="cls-2" d="m181.17,33.13s-.21,1.51-1.83,2.86c-1.62,1.34-5.65,2.7-8.33,6.02-2.68,3.32-1.38,6.58-.69,7.55.39.56.99.69,1.43.7-.16-.76-.27-1.61-.22-2.49.35-3.53,3.12-5.76,3.56-6.17.24-.21.69-.57,1.23-.97.56-.39,1.15-.83,1.69-1.34,1.08-.98,1.95-1.98,1.95-1.98,0,0-.74,1.09-1.72,2.2-.47.56-1.07,1.12-1.58,1.54-.5.44-.91.82-1.15,1.02-.23.21-.95.84-1.65,1.86-.35.52-.67,1.1-.98,1.81-.3.61-.45,1.33-.45,2.06-.01,1.26.33,2.5.69,3.46.48.25,1.22.33,2.4-.11.93-.52,1.74-1.11,2.43-1.75l-1.11-1.46,2.07.45c.69-.82,1.23-1.71,1.66-2.62l-2.01-.61,2.52-.65c.44-1.28.68-2.58.79-3.83l-2,.35h-.02s.01,0,.01,0l-.22.04,2.29-1.52c.1-3.56-.75-6.41-.75-6.41"/>
  <path class="cls-2" d="m171,42c2.41-2.98,5.92-4.38,7.78-5.61-1.6,1.46-5.28,3.11-7.49,6.53-2,3.09-1.02,5.94-.22,7.21-.27-.1-.54-.28-.75-.58-.69-.97-1.99-4.23.69-7.55"/>
  <path class="cls-3" d="m180.48,32.28s-.21,1.51-1.83,2.86c-1.62,1.34-5.65,2.7-8.33,6.02-2.68,3.32-1.38,6.58-.69,7.55.39.56.99.69,1.43.7-.16-.76-.27-1.61-.22-2.49.35-3.53,3.12-5.76,3.56-6.17.24-.21.69-.57,1.23-.97.56-.39,1.15-.83,1.69-1.34,1.08-.98,1.95-1.98,1.95-1.98,0,0-.74,1.09-1.72,2.2-.47.56-1.07,1.12-1.58,1.54-.5.44-.91.82-1.15,1.02-.23.21-.95.84-1.65,1.86-.35.52-.67,1.1-.98,1.81-.3.61-.45,1.33-.45,2.06-.01,1.26.33,2.5.69,3.46.48.25,1.23.33,2.4-.11.93-.52,1.74-1.11,2.43-1.75l-1.11-1.46,2.07.45c.69-.82,1.23-1.71,1.66-2.62l-2.01-.61,2.52-.65c.44-1.28.68-2.58.79-3.83l-2,.35h-.02s.01,0,.01,0l-.22.04,2.29-1.52c.1-3.56-.75-6.41-.75-6.41"/>
  <path class="cls-3" d="m170.31,41.16c2.41-2.98,5.92-4.38,7.78-5.61-1.6,1.46-5.28,3.11-7.49,6.53-2,3.09-1.02,5.94-.22,7.21-.27-.1-.54-.28-.75-.58-.69-.97-1.99-4.23.69-7.55"/>
  <path class="cls-2" d="m188.54,95.04l.43-1.33c.34.26.62.45.84.59.66.41,1.38.61,2.15.61s1.38-.2,1.83-.61c.39-.37.59-.81.59-1.33,0-.61-.28-1.11-.84-1.49-.26-.18-.89-.48-1.91-.91-1.05-.44-1.79-.89-2.22-1.33-.51-.52-.77-1.12-.77-1.81,0-.62.19-1.17.57-1.67.74-.96,1.95-1.43,3.61-1.43.95,0,1.93.2,2.93.6l-.4,1.19c-.97-.6-1.85-.9-2.66-.9-.65,0-1.17.18-1.57.54-.34.31-.51.69-.51,1.13s.17.83.51,1.12c.34.29,1.04.65,2.1,1.08,1.16.48,1.95.94,2.36,1.39.52.57.77,1.23.77,1.99,0,.64-.19,1.24-.56,1.78-.76,1.1-2.01,1.65-3.77,1.65-.63,0-1.21-.06-1.73-.19-.52-.13-1.11-.35-1.76-.67m-9.35-10.54h6.53v.91c-.19-.05-.39-.08-.59-.08h-3.75v4.28h3.65c.26,0,.49-.02.69-.07v.92c-.17-.03-.39-.05-.67-.05h-3.67v4.43h3.64c.2,0,.44-.03.7-.08v.99h-6.52c.05-.16.07-.34.07-.53v-10.17c0-.22-.03-.41-.08-.54Zm-6.43,0h2.27c-.05.13-.08.31-.08.53v10.17c0,.23.03.41.08.54h-2.27c.05-.17.08-.35.08-.54v-10.17c0-.19-.03-.37-.08-.53Zm-11.62,0h9.14v1.02c-.3-.05-.56-.08-.79-.08h-2.72v9.75c0,.2.03.38.08.54h-2.27c.05-.16.08-.34.08-.54v-9.75h-2.73c-.26,0-.53.03-.8.08v-1.02Zm-7.7,5.39h.98c.57,0,1.07-.13,1.48-.39.67-.43,1.01-1.06,1.01-1.88,0-.76-.28-1.37-.85-1.82-.41-.32-.99-.49-1.74-.49h-.88v4.57Zm0,.64v4.67c0,.19.03.37.08.54h-2.28c.06-.14.08-.32.08-.54v-10.16c0-.19-.03-.36-.08-.53h3.83c.87,0,1.64.16,2.3.49.51.25.91.6,1.21,1.04.3.45.45.95.45,1.52,0,1.26-.66,2.11-1.99,2.57-.36.12-.83.23-1.4.33l4.13,4.86c.17.2.34.35.51.44h-2.75c-.06-.17-.15-.33-.27-.49l-3.82-4.72Zm-12.36-6.03h6.53v.91c-.19-.05-.39-.08-.59-.08h-3.75v4.28h3.65c.26,0,.5-.02.69-.07v.92c-.17-.03-.39-.05-.67-.05h-3.67v4.43h3.64c.2,0,.44-.03.7-.08v.99h-6.52c.05-.16.07-.34.07-.53v-10.17c0-.22-.03-.41-.08-.54Zm-8.94,5.54h1.12c.62,0,1.11-.1,1.49-.3.36-.19.64-.48.85-.86.21-.38.31-.8.31-1.26,0-.71-.22-1.28-.66-1.68-.44-.41-1.04-.61-1.81-.61h-1.3v4.71Zm0,.87v4.29c0,.16.03.34.09.54h-2.28c.06-.17.08-.35.08-.54v-10.15c0-.2-.03-.39-.08-.55h4.03c.98,0,1.82.18,2.5.53,1.05.55,1.57,1.41,1.57,2.58,0,1.3-.64,2.23-1.91,2.8-.75.33-1.63.5-2.67.5h-1.34Zm-11.88-5.7c-1.39,0-2.41.47-3.07,1.4-.6.85-.89,1.99-.89,3.42,0,3.33,1.33,5,3.98,5,1.33,0,2.33-.47,3.01-1.4.33-.44.56-.94.71-1.49.14-.55.22-1.21.22-1.99,0-3.26-1.32-4.91-3.95-4.94Zm-.01-.88c1.86,0,3.33.46,4.42,1.37,1.19,1.01,1.79,2.48,1.79,4.41s-.57,3.35-1.71,4.36c-1.08.95-2.58,1.43-4.53,1.43s-3.56-.51-4.59-1.53c-1.06-1.04-1.59-2.5-1.59-4.36,0-1.18.25-2.21.76-3.08.98-1.71,2.8-2.58,5.45-2.6Zm-14.76,5.56h.98c.57,0,1.06-.13,1.48-.39.67-.43,1.01-1.06,1.01-1.88,0-.76-.28-1.37-.85-1.82-.41-.32-.99-.49-1.74-.49h-.88v4.57Zm.01.64v4.67c0,.19.03.37.08.54h-2.28c.06-.14.08-.32.08-.54v-10.16c0-.19-.03-.36-.08-.53h3.83c.87,0,1.64.16,2.3.49.51.25.91.6,1.21,1.04.3.45.45.95.45,1.52,0,1.26-.66,2.11-1.99,2.57-.36.12-.83.23-1.4.33l4.13,4.86c.17.2.34.35.51.44h-2.75c-.06-.17-.15-.33-.27-.49l-3.82-4.72Zm-11.13-.49h1.13c.61,0,1.11-.1,1.48-.3.36-.19.64-.48.85-.86.21-.38.31-.8.31-1.26,0-.71-.22-1.28-.66-1.68-.44-.41-1.04-.61-1.81-.61h-1.3v4.71Zm0,.87v4.29c0,.16.03.34.09.54h-2.28c.05-.17.08-.35.08-.54v-10.15c0-.2-.03-.39-.08-.55h4.03c.98,0,1.82.18,2.5.53,1.05.55,1.57,1.41,1.57,2.58,0,1.3-.64,2.23-1.91,2.8-.74.33-1.63.5-2.67.5h-1.34Z"/>
  <path class="cls-2" d="m200.45,82.46c.47,0,.92.12,1.37.36s.79.58,1.04,1.03.37.91.37,1.4-.12.94-.37,1.38-.59.79-1.03,1.03-.9.37-1.39.37-.94-.12-1.39-.37-.79-.59-1.03-1.03-.37-.9-.37-1.38.12-.95.37-1.4.6-.79,1.04-1.03.9-.36,1.37-.36Zm0,.46c-.39,0-.77.1-1.14.3s-.66.49-.87.86-.31.76-.31,1.16.1.79.31,1.15.49.65.86.86.75.31,1.16.31.79-.1,1.16-.31.66-.49.86-.86.31-.75.31-1.15-.1-.79-.31-1.16-.5-.66-.87-.86-.75-.3-1.14-.3Zm-1.22,3.86v-3h1.03c.35,0,.61.03.76.08s.28.15.38.29.14.28.14.44c0,.22-.08.41-.23.57s-.36.25-.62.27c.11.04.19.1.25.16.12.12.27.32.44.59l.37.59h-.59l-.27-.47c-.21-.37-.38-.6-.51-.7-.09-.07-.22-.1-.39-.1h-.28v1.27h-.48Zm.48-1.69h.59c.28,0,.47-.04.57-.13s.15-.19.15-.33c0-.09-.02-.17-.07-.24s-.12-.12-.2-.16-.25-.05-.49-.05h-.55v.9Z"/>
</svg>