<svg width="208" height="56" viewBox="0 0 208 56" fill="none" xmlns="http://www.w3.org/2000/svg">
<path d="M9.47428 43.0431C7.94967 43.0431 6.64286 42.8235 5.55386 42.3293C4.35595 41.8352 3.4303 41.1764 2.72244 40.298C2.01459 39.4744 1.41564 38.4313 1.08894 37.3333C0.707784 36.1803 0.544434 34.9725 0.544434 33.6548C0.544434 32.5568 0.707784 31.4588 1.08894 30.3607C1.47009 29.2627 2.01459 28.2195 2.77689 27.3411C3.5392 26.4627 4.5193 25.6941 5.71721 25.145C6.91511 24.596 8.33082 24.2666 10.0188 24.2666C10.9444 24.2666 11.7612 24.3215 12.5779 24.4862C13.3947 24.596 14.2115 24.8156 15.1916 25.0901C15.246 25.5842 15.3005 26.2431 15.4094 27.0117C15.5183 27.7803 15.6816 28.549 15.845 29.3176C15.7361 29.3176 15.6272 29.3725 15.5183 29.3725C15.3549 29.4274 15.246 29.4274 15.1916 29.4274C15.0282 29.4274 14.9193 29.4274 14.8104 29.3725C14.7015 29.3176 14.6471 29.2078 14.5926 29.098C14.3748 28.4941 14.157 27.945 13.9392 27.5607C13.6669 27.1215 13.3947 26.7921 13.0135 26.5725C12.6868 26.298 12.2512 26.1333 11.8156 26.0235C11.3256 25.9137 10.7811 25.8588 10.1821 25.8588C9.20203 25.8588 8.38527 26.0235 7.62297 26.3529C6.86066 26.6823 6.26171 27.1764 5.77166 27.8352C5.28161 28.4941 4.90045 29.2627 4.6282 30.1411C4.35595 31.0195 4.24705 32.0627 4.24705 33.2156C4.24705 34.4235 4.4104 35.5764 4.7371 36.6195C5.06381 37.6627 5.49941 38.5411 6.04391 39.3097C6.58841 40.0784 7.24182 40.6823 8.00412 41.1215C8.76642 41.5607 9.58318 41.7803 10.4544 41.7803C11.1622 41.7803 11.7612 41.7254 12.3057 41.5607C12.7957 41.396 13.2313 41.2313 13.6125 40.9019C13.9936 40.6274 14.2659 40.2431 14.5382 39.8039C14.8104 39.3646 15.0282 38.8156 15.246 38.2666C15.3005 38.1019 15.4094 37.9921 15.5183 37.9372C15.6272 37.8823 15.7361 37.8274 15.8994 37.8274C16.0083 37.8274 16.1172 37.8274 16.2261 37.8823C16.335 37.9372 16.4984 37.9372 16.5528 37.9921C16.4439 38.3215 16.335 38.6509 16.2261 39.0901C16.1172 39.4744 16.0083 39.9137 15.845 40.298C15.7361 40.7372 15.6272 41.1215 15.5183 41.5607C15.4094 41.9999 15.3549 42.3842 15.246 42.7686C14.3748 42.9333 13.4491 43.0431 12.5779 43.1529C11.5434 42.9882 10.5633 43.0431 9.47428 43.0431Z" fill="#323232"/>
<path d="M33.7047 40.6274C33.7047 40.7921 33.7047 40.9569 33.7591 41.0667C33.7591 41.1765 33.868 41.2863 33.9769 41.3961C34.0858 41.5059 34.2492 41.5608 34.467 41.6157C34.6848 41.6706 35.0115 41.7255 35.3926 41.7804C35.556 41.8353 35.6649 42 35.6649 42.2745C35.6649 42.3294 35.6649 42.4392 35.6649 42.549C35.6649 42.6588 35.6649 42.7686 35.6104 42.8235C35.0115 42.7686 34.4125 42.7686 33.7591 42.7137C33.1057 42.6588 32.5612 42.6588 32.0167 42.6588C31.4722 42.6588 30.9277 42.6588 30.2743 42.7137C29.6209 42.7686 29.0219 42.7686 28.423 42.8235C28.3685 42.7686 28.3685 42.6588 28.3685 42.549C28.3685 42.4392 28.3685 42.3294 28.3685 42.2745C28.3685 42 28.4774 41.8353 28.6408 41.7804C29.0219 41.7255 29.2942 41.6706 29.5664 41.6157C29.7842 41.5608 29.9476 41.451 30.0565 41.3961C30.1654 41.2863 30.2198 41.1765 30.2743 41.0667C30.3287 40.9569 30.3287 40.7921 30.3287 40.6274V34.0941H23.0869V40.6274C23.0869 40.7921 23.0869 40.9569 23.1413 41.0667C23.1413 41.1765 23.2502 41.2863 23.3591 41.3961C23.468 41.5059 23.6314 41.5608 23.8492 41.6157C24.067 41.6706 24.3937 41.7255 24.7748 41.7804C24.9382 41.8353 25.0471 42 25.0471 42.2745C25.0471 42.3294 25.0471 42.4392 25.0471 42.549C25.0471 42.6588 25.0471 42.7686 24.9926 42.8235C24.3937 42.7686 23.7947 42.7686 23.1413 42.7137C22.4879 42.6588 21.889 42.6588 21.3989 42.6588C20.9089 42.6588 20.3099 42.6588 19.6565 42.7137C19.0031 42.7686 18.4041 42.7686 17.8052 42.8235C17.7507 42.7686 17.7507 42.6588 17.7507 42.549C17.7507 42.4392 17.7507 42.3294 17.7507 42.2745C17.7507 42 17.8596 41.8353 18.023 41.7804C18.4041 41.7255 18.6764 41.6706 18.9486 41.6157C19.1664 41.5608 19.3298 41.451 19.4387 41.3961C19.5476 41.2863 19.602 41.1765 19.6565 41.0667C19.7109 40.9569 19.7109 40.7921 19.7109 40.6274V26.6274C19.7109 26.4627 19.7109 26.298 19.6565 26.1882C19.602 26.0784 19.5476 25.9686 19.4387 25.8588C19.3298 25.749 19.1664 25.6941 18.9486 25.6392C18.7308 25.5843 18.4041 25.5294 18.023 25.4745C17.8596 25.4196 17.7507 25.2549 17.7507 24.9804C17.7507 24.9255 17.7507 24.8157 17.7507 24.7059C17.7507 24.5961 17.7507 24.4863 17.8052 24.3765C18.4041 24.4314 19.0031 24.4314 19.6565 24.4863C20.3099 24.5412 20.8544 24.5412 21.3989 24.5412C21.889 24.5412 22.4879 24.5412 23.1413 24.4863C23.7947 24.4314 24.4481 24.4314 24.9926 24.3765C24.9926 24.4863 25.0471 24.5961 25.0471 24.7059C25.0471 24.8157 25.0471 24.9255 25.0471 24.9804C25.0471 25.2549 24.9382 25.4196 24.7748 25.4745C24.3937 25.5294 24.1214 25.5843 23.8492 25.6392C23.6314 25.6941 23.468 25.8039 23.3591 25.8588C23.2502 25.9686 23.1958 26.0784 23.1413 26.1882C23.1413 26.298 23.0869 26.4627 23.0869 26.6274V32.5569H30.3287V26.6274C30.3287 26.4627 30.3287 26.298 30.2743 26.1882C30.2198 26.0784 30.1654 25.9686 30.0565 25.8588C29.9476 25.749 29.7842 25.6941 29.5664 25.6392C29.3486 25.5843 29.0219 25.5294 28.6408 25.4745C28.4774 25.4196 28.3685 25.2549 28.3685 24.9804C28.3685 24.9255 28.3685 24.8157 28.3685 24.7059C28.3685 24.5961 28.3685 24.4863 28.423 24.3765C29.0219 24.4314 29.6209 24.4314 30.2743 24.4863C30.9277 24.5412 31.5267 24.5412 32.0167 24.5412C32.5068 24.5412 33.1057 24.5412 33.7591 24.4863C34.4125 24.4314 35.0115 24.4314 35.6104 24.3765C35.6104 24.4863 35.6649 24.5961 35.6649 24.7059C35.6649 24.8157 35.6649 24.9255 35.6649 24.9804C35.6649 25.2549 35.556 25.4196 35.3926 25.4745C35.0115 25.5294 34.7392 25.5843 34.467 25.6392C34.2492 25.6941 34.0858 25.8039 33.9769 25.8588C33.868 25.9686 33.8136 26.0784 33.7591 26.1882C33.7591 26.298 33.7047 26.4627 33.7047 26.6274V40.6274Z" fill="#323232"/>
<path d="M47.8618 36.5646H42.1989L40.7832 40.4626C40.7288 40.5725 40.6743 40.6823 40.6743 40.7921C40.6743 40.9019 40.6743 41.0117 40.6743 41.0666C40.6743 41.2862 40.7832 41.4509 40.9466 41.5607C41.1099 41.6705 41.4911 41.7803 42.09 41.8901C42.3623 41.945 42.4712 42.1097 42.4712 42.4391C42.4712 42.5489 42.4712 42.7136 42.4167 42.9332C41.9267 42.8783 41.4366 42.8783 40.8921 42.8234C40.3476 42.7685 39.8031 42.7685 39.3131 42.7685C38.9319 42.7685 38.6052 42.7685 38.1696 42.8234C37.7885 42.8234 37.3529 42.8783 36.8628 42.9332C36.8083 42.8783 36.8083 42.7685 36.8083 42.6587C36.8083 42.5489 36.8083 42.494 36.8083 42.4391C36.8083 42.1097 36.9172 41.8901 37.1351 41.8901C37.6796 41.7803 38.1152 41.6705 38.333 41.5058C38.5508 41.3411 38.7686 41.1764 38.9319 40.847L45.4115 24.7058C45.5748 24.3764 45.7926 24.2117 46.0649 24.2117C46.1738 24.2117 46.2282 24.2117 46.3371 24.2117C46.446 24.2117 46.5005 24.2117 46.6094 24.2666L53.089 40.847C53.1979 41.1215 53.4157 41.3411 53.6879 41.4509C54.0146 41.6156 54.3413 41.6705 54.668 41.7254C54.9403 41.7803 55.0492 41.945 55.0492 42.2744C55.0492 42.4391 55.0492 42.6038 54.9947 42.7685C54.3958 42.7136 53.8513 42.7136 53.3068 42.6587C52.7623 42.6038 52.2178 42.6038 51.7277 42.6038C51.4555 42.6038 51.1832 42.6038 50.8021 42.6038C50.4209 42.6038 50.0942 42.6038 49.7131 42.6587C49.3319 42.6587 48.9508 42.7136 48.6241 42.7136C48.2429 42.7136 47.9707 42.7136 47.6984 42.7685C47.644 42.7136 47.644 42.6038 47.644 42.494C47.644 42.3842 47.644 42.3293 47.644 42.2744C47.644 42.1097 47.6984 41.9999 47.7529 41.8901C47.8073 41.7803 47.8618 41.7803 47.9707 41.7254C48.4607 41.6156 48.7874 41.5058 49.0052 41.396C49.223 41.2862 49.3319 41.0666 49.3319 40.847C49.3319 40.7372 49.3319 40.5725 49.2775 40.4077L47.8618 36.5646ZM47.3717 35.1921L45.0848 28.9332L42.7434 35.1921H47.3717Z" fill="#323232"/>
<path d="M67.5183 29.0981C67.3549 29.153 67.1916 29.2079 67.0282 29.2079C66.756 29.2079 66.5926 29.153 66.4837 29.0432C66.3748 28.9334 66.3204 28.8236 66.2659 28.7138C65.8303 27.6706 65.3403 26.902 64.6869 26.4079C64.0335 25.9687 63.1623 25.6941 62.0733 25.6941C61.2021 25.6941 60.4942 25.9138 59.8952 26.353C59.2963 26.7922 58.9696 27.451 58.9696 28.3294C58.9696 29.0432 59.1874 29.5922 59.6775 29.9765C60.1131 30.4157 60.712 30.7451 61.4199 31.0745C62.1277 31.404 62.8356 31.6785 63.6523 32.0079C64.4691 32.2824 65.1769 32.6667 65.8848 33.1059C66.5926 33.5451 67.1371 34.0941 67.6272 34.8079C68.0628 35.5216 68.335 36.4 68.335 37.4432C68.335 38.1569 68.2261 38.8157 68.0083 39.5294C67.7905 40.1883 67.4094 40.7922 66.9193 41.2863C66.4293 41.7804 65.7759 42.2196 65.0136 42.4941C64.2513 42.8236 63.3256 42.9334 62.2366 42.9334C61.0387 42.9334 60.0041 42.8236 59.0785 42.549C58.1528 42.2745 57.3905 42 56.7916 41.6706C56.7371 40.8471 56.6282 40.0785 56.5193 39.3098C56.4104 38.5412 56.2471 37.7726 56.1382 37.0589C56.3015 37.004 56.5193 36.9491 56.7371 36.9491C56.9549 36.9491 57.1183 37.004 57.2272 37.0589C57.3361 37.1687 57.445 37.2785 57.4994 37.4981C57.7172 38.2118 57.9895 38.8157 58.2617 39.3098C58.534 39.804 58.8607 40.2432 59.2418 40.5726C59.623 40.902 60.0586 41.1216 60.5486 41.2863C61.0387 41.451 61.5832 41.5059 62.2366 41.5059C62.7811 41.5059 63.2712 41.451 63.6523 41.2863C64.0335 41.1216 64.3602 40.902 64.6324 40.6824C64.9047 40.4079 65.068 40.1334 65.1769 39.7491C65.2858 39.4196 65.3403 39.0353 65.3403 38.651C65.3403 37.8275 65.1225 37.2236 64.6869 36.7843C64.2513 36.3451 63.7068 35.9608 63.0534 35.6314C62.4 35.302 61.6921 35.0275 60.9298 34.753C60.1675 34.4785 59.4596 34.149 58.8062 33.7098C58.1528 33.2706 57.6083 32.7765 57.1727 32.0628C56.7371 31.404 56.5193 30.5255 56.5193 29.3726C56.5193 28.604 56.6282 27.9451 56.9005 27.2863C57.1727 26.6275 57.5539 26.0785 58.0439 25.5843C58.534 25.0902 59.1329 24.7059 59.8408 24.4314C60.5486 24.1569 61.3654 23.9922 62.2911 23.9922C63.0534 23.9922 63.8157 24.102 64.578 24.2667C65.3403 24.4314 66.2115 24.7059 67.1916 25.0902C67.246 25.6392 67.3005 26.2981 67.3549 26.9569C67.3549 27.8902 67.4094 28.549 67.5183 29.0981Z" fill="#323232"/>
<path d="M81.0764 25.9686V32.7215H84.8879C85.2146 32.7215 85.4868 32.5568 85.5957 32.2823C85.7046 32.0078 85.8136 31.5137 85.9225 30.8549C85.9225 30.6902 85.9769 30.6353 86.0858 30.5804C86.1947 30.5255 86.3036 30.5255 86.4125 30.5255C86.467 30.5255 86.5759 30.5255 86.6848 30.5255C86.7937 30.5255 86.9026 30.5255 86.957 30.5804C86.9026 31.0196 86.9026 31.5137 86.8481 32.0627C86.8481 32.6117 86.7937 33.1058 86.7937 33.4902C86.7937 33.8196 86.7937 34.2039 86.7937 34.698C86.7937 35.1372 86.8481 35.6862 86.9026 36.2353C86.8481 36.2902 86.7392 36.2902 86.6303 36.2902C86.5214 36.2902 86.4125 36.2902 86.3581 36.2902C86.0314 36.2902 85.868 36.1804 85.868 35.9058C85.7591 35.1921 85.6502 34.698 85.4868 34.4784C85.3779 34.2039 85.1602 34.0941 84.8334 34.0941H81.0219V40.3529C81.0219 40.7372 81.2397 41.0117 81.7298 41.1215C82.2198 41.2313 82.9821 41.3411 84.0711 41.3411H85.2146C85.7591 41.3411 86.1947 41.2862 86.5759 41.1215C86.957 40.9568 87.2837 40.7372 87.556 40.5176C87.8282 40.2431 88.1005 39.9137 88.3183 39.5843C88.5361 39.2 88.7539 38.8157 88.9717 38.3764C89.0261 38.2666 89.135 38.1568 89.3528 38.1568C89.4617 38.1568 89.5706 38.2117 89.6795 38.2666C89.7884 38.3215 89.9518 38.3764 90.0607 38.4313C90.0062 38.596 90.0062 38.7058 89.9518 38.8706C89.8973 38.9804 89.8429 39.1451 89.8429 39.2549C89.734 39.4745 89.6795 39.6941 89.6251 39.9137C89.5706 40.1333 89.5162 40.3529 89.4617 40.5176C89.4073 40.6823 89.4073 40.9019 89.3528 41.1215C89.2984 41.3411 89.2439 41.5607 89.2439 41.7804C89.1895 42 89.135 42.1647 89.135 42.3294C89.0806 42.4941 89.0806 42.6039 89.0261 42.6588C88.9717 42.8235 88.8083 42.8784 88.5905 42.8784C88.4272 42.8784 88.2638 42.8784 87.9916 42.8235C87.7193 42.8235 87.4471 42.7686 87.1204 42.7686C86.7937 42.7686 86.467 42.7686 86.1403 42.7137C85.8135 42.7137 85.5413 42.6588 85.3235 42.6588H79.2251C78.6806 42.6588 78.1361 42.6588 77.4282 42.7137C76.7748 42.7686 76.1759 42.7686 75.6313 42.8235C75.5769 42.7686 75.5769 42.6588 75.5769 42.549C75.5769 42.4392 75.5769 42.3294 75.5769 42.2745C75.5769 42 75.6858 41.8353 75.8492 41.8353C76.5026 41.7255 76.9926 41.5607 77.3193 41.396C77.646 41.2313 77.7549 41.0117 77.7549 40.6274V26.6274C77.7549 26.4627 77.7549 26.298 77.7005 26.1882C77.646 26.0784 77.5371 25.9686 77.3738 25.8588C77.2104 25.749 77.0471 25.6941 76.7748 25.6392C76.557 25.5843 76.2303 25.5294 75.8492 25.4196C75.6858 25.3647 75.5769 25.2 75.5769 24.9255C75.5769 24.8157 75.5769 24.7608 75.5769 24.6509C75.5769 24.5411 75.5769 24.4862 75.6313 24.3764C76.3937 24.4313 77.1015 24.4862 77.646 24.4862C78.245 24.4862 78.735 24.5411 79.1706 24.5411H84.6701C85.4868 24.5411 86.1947 24.4862 86.7392 24.4313C87.3382 24.3764 87.7193 24.3215 87.9371 24.3215C88.1549 24.3215 88.2638 24.4313 88.3727 24.596C88.4272 24.7607 88.4816 25.0353 88.4816 25.4196C88.5361 25.8039 88.5905 26.2431 88.645 26.6823C88.6994 27.0117 88.7539 27.2862 88.8083 27.6157C88.8628 27.8902 88.9717 28.2745 89.135 28.7137C89.0261 28.7686 88.9717 28.7686 88.8628 28.8235C88.7539 28.8784 88.645 28.8784 88.5361 28.8784C88.3183 28.8784 88.2094 28.7686 88.1005 28.6039C87.8827 28.1098 87.6649 27.7255 87.4471 27.3411C87.2293 27.0117 87.0115 26.7372 86.7392 26.5176C86.467 26.298 86.1947 26.1333 85.8136 26.0784C85.4869 25.9686 85.0512 25.9137 84.5612 25.9137H81.0764V25.9686Z" fill="#323232"/>
<path d="M104.327 26.902C104.436 26.6824 104.436 26.4628 104.436 26.2981C104.436 26.0236 104.327 25.8588 104.109 25.749C103.891 25.6392 103.456 25.5294 102.911 25.4745C102.693 25.4745 102.584 25.2549 102.584 24.9255C102.584 24.8706 102.584 24.8706 102.584 24.8157C102.584 24.7608 102.584 24.7059 102.584 24.651V24.4314C102.748 24.4314 102.965 24.4863 103.183 24.4863C103.401 24.4863 103.673 24.5412 103.946 24.5412C104.218 24.5412 104.49 24.5412 104.762 24.5961C105.035 24.5961 105.307 24.5961 105.525 24.5961C106.069 24.5961 106.559 24.5961 106.995 24.5412C107.485 24.5412 107.866 24.4863 108.193 24.4314V24.651C108.193 24.7059 108.193 24.7608 108.193 24.8157C108.193 24.8706 108.193 24.9255 108.193 24.9804C108.193 25.3098 108.084 25.5294 107.866 25.5294C107.267 25.5843 106.886 25.6941 106.668 25.8039C106.45 25.9687 106.232 26.1883 106.069 26.5177L99.4262 42.9883C99.3173 42.9883 99.2629 43.0432 99.2084 43.0432C99.154 43.0432 99.0995 43.0432 99.0451 43.0432C98.8817 43.0432 98.7728 42.9883 98.7184 42.9334C98.6639 42.8785 98.6095 42.7687 98.5006 42.549L92.2388 26.4079C92.1843 26.2981 92.1299 26.1883 92.0754 26.0785C92.021 25.9687 91.9121 25.9137 91.8032 25.8039C91.6943 25.749 91.5309 25.6941 91.3131 25.6392C91.0953 25.5843 90.8231 25.5294 90.4964 25.5294C90.2786 25.5294 90.1697 25.3098 90.1697 24.9255C90.1697 24.8706 90.1697 24.8157 90.1697 24.7059C90.1697 24.5961 90.1697 24.5412 90.2241 24.4863C90.4964 24.4863 90.8231 24.5412 91.1498 24.5412C91.4765 24.5412 91.8576 24.5961 92.1843 24.5961C92.511 24.5961 92.8922 24.5961 93.2189 24.651C93.5456 24.651 93.8178 24.651 94.0901 24.651C94.689 24.651 95.3424 24.651 96.0503 24.5961C96.7582 24.5412 97.3571 24.5412 97.9561 24.4863C98.0105 24.5961 98.0105 24.651 98.0105 24.7608C98.0105 24.8706 98.0105 24.9255 98.0105 24.9804C98.0105 25.3098 97.9016 25.4745 97.6838 25.5294C97.0849 25.5843 96.7037 25.6941 96.4859 25.8039C96.2681 25.9137 96.1592 26.1334 96.1592 26.353C96.1592 26.4628 96.1592 26.6275 96.2136 26.7922L100.134 37.8275L104.327 26.902Z" fill="#323232"/>
<path d="M115.108 25.9686V32.7215H118.919C119.246 32.7215 119.518 32.5568 119.627 32.2823C119.736 32.0078 119.845 31.5137 119.954 30.8549C119.954 30.6902 120.008 30.6353 120.117 30.5804C120.226 30.5255 120.335 30.5255 120.444 30.5255C120.498 30.5255 120.607 30.5255 120.716 30.5255C120.825 30.5255 120.934 30.5255 120.989 30.5804C120.934 31.0196 120.934 31.5137 120.88 32.0627C120.88 32.6117 120.825 33.1058 120.825 33.4902C120.825 33.8196 120.825 34.2039 120.825 34.698C120.825 35.1372 120.88 35.6862 120.934 36.2353C120.88 36.2902 120.771 36.2902 120.662 36.2902C120.553 36.2902 120.444 36.2902 120.39 36.2902C120.063 36.2902 119.899 36.1804 119.899 35.9058C119.791 35.1921 119.682 34.698 119.518 34.4784C119.409 34.2039 119.192 34.0941 118.865 34.0941H115.053V40.3529C115.053 40.7372 115.271 41.0117 115.761 41.1215C116.251 41.2313 117.014 41.3411 118.103 41.3411H119.246C119.791 41.3411 120.226 41.2862 120.607 41.1215C120.989 40.9568 121.315 40.7372 121.587 40.5176C121.86 40.2431 122.132 39.9137 122.35 39.5843C122.568 39.2 122.785 38.8157 123.003 38.3764C123.058 38.2666 123.167 38.1568 123.384 38.1568C123.493 38.1568 123.602 38.2117 123.711 38.2666C123.82 38.3215 123.983 38.3764 124.092 38.4313C124.038 38.596 124.038 38.7058 123.983 38.8706C123.929 38.9804 123.874 39.1451 123.874 39.2549C123.765 39.4745 123.711 39.6941 123.657 39.9137C123.602 40.1333 123.548 40.3529 123.493 40.5176C123.439 40.6823 123.439 40.9019 123.384 41.1215C123.33 41.3411 123.275 41.5607 123.275 41.7804C123.221 42 123.167 42.1647 123.167 42.3294C123.112 42.4941 123.112 42.6039 123.058 42.6588C123.003 42.8235 122.84 42.8784 122.622 42.8784C122.459 42.8784 122.295 42.8784 122.023 42.8235C121.751 42.8235 121.479 42.7686 121.152 42.7686C120.825 42.7686 120.498 42.7686 120.172 42.7137C119.845 42.7137 119.573 42.6588 119.355 42.6588H113.257C112.712 42.6588 112.168 42.6588 111.46 42.7137C110.806 42.7686 110.207 42.7686 109.663 42.8235C109.608 42.7686 109.608 42.6588 109.608 42.549C109.608 42.4392 109.608 42.3294 109.608 42.2745C109.608 42 109.717 41.8353 109.881 41.8353C110.534 41.7255 111.024 41.5607 111.351 41.396C111.678 41.2313 111.786 41.0117 111.786 40.6274V26.6274C111.786 26.4627 111.786 26.298 111.732 26.1882C111.678 26.0784 111.569 25.9686 111.405 25.8588C111.242 25.749 111.079 25.6941 110.806 25.6392C110.589 25.5843 110.262 25.5294 109.881 25.4196C109.717 25.3647 109.608 25.2 109.608 24.9255C109.608 24.8157 109.608 24.7608 109.608 24.6509C109.608 24.5411 109.608 24.4862 109.663 24.3764C110.425 24.4313 111.133 24.4862 111.678 24.4862C112.276 24.4862 112.767 24.5411 113.202 24.5411H118.702C119.518 24.5411 120.226 24.4862 120.771 24.4313C121.37 24.3764 121.751 24.3215 121.969 24.3215C122.186 24.3215 122.295 24.4313 122.404 24.596C122.459 24.7607 122.513 25.0353 122.513 25.4196C122.568 25.8039 122.622 26.2431 122.676 26.6823C122.731 27.0117 122.785 27.2862 122.84 27.6157C122.894 27.8902 123.003 28.2745 123.167 28.7137C123.058 28.7686 123.003 28.7686 122.894 28.8235C122.785 28.8784 122.676 28.8784 122.568 28.8784C122.35 28.8784 122.241 28.7686 122.132 28.6039C121.914 28.1098 121.696 27.7255 121.479 27.3411C121.261 27.0117 121.043 26.7372 120.771 26.5176C120.498 26.298 120.226 26.1333 119.845 26.0784C119.518 25.9686 119.083 25.9137 118.593 25.9137H115.108V25.9686Z" fill="#323232"/>
<path d="M132.042 34.5882H130.898V40.4078C130.898 40.847 131.062 41.1216 131.443 41.3412C131.77 41.5059 132.369 41.6706 133.24 41.7804C133.512 41.8353 133.621 42 133.621 42.3294C133.621 42.4941 133.621 42.6588 133.566 42.8235C133.022 42.7686 132.423 42.7686 131.606 42.7137C130.79 42.6588 129.973 42.6588 129.047 42.6588C128.394 42.6588 127.795 42.6588 127.196 42.7137C126.597 42.7686 126.052 42.7686 125.508 42.8235C125.453 42.7686 125.453 42.6588 125.453 42.549C125.453 42.4392 125.453 42.3843 125.453 42.3294C125.453 42 125.562 41.8353 125.726 41.7804C126.107 41.7255 126.379 41.6157 126.651 41.5608C126.869 41.5059 127.087 41.3961 127.196 41.3412C127.305 41.2314 127.414 41.1765 127.468 41.0118C127.522 40.902 127.522 40.7372 127.522 40.5725V26.6274C127.522 26.2431 127.414 25.9686 127.141 25.8039C126.869 25.6392 126.379 25.5294 125.671 25.4196C125.562 25.3647 125.508 25.3098 125.453 25.2549C125.399 25.2 125.399 25.0353 125.399 24.8706C125.399 24.8157 125.399 24.7059 125.399 24.5961C125.399 24.4863 125.399 24.4314 125.453 24.3765C125.943 24.4314 126.542 24.4314 127.196 24.4863C127.849 24.5412 128.448 24.5412 128.938 24.5412H132.968C133.893 24.5412 134.764 24.651 135.527 24.9255C136.289 25.1451 136.942 25.5294 137.432 25.9686C137.977 26.4078 138.358 26.9569 138.63 27.5608C138.903 28.1647 139.066 28.8784 139.066 29.5922C139.066 30.5804 138.794 31.4588 138.195 32.2823C137.596 33.1059 136.833 33.7098 135.799 34.0941L139.992 40.4627C140.318 40.9569 140.699 41.2863 141.081 41.451C141.516 41.6157 141.897 41.7804 142.224 41.8902C142.333 41.8902 142.387 41.9451 142.442 42C142.496 42.0549 142.496 42.1647 142.496 42.3294C142.496 42.3843 142.496 42.4941 142.496 42.6039C142.496 42.7137 142.496 42.7686 142.442 42.8784C142.224 42.8784 141.952 42.8235 141.625 42.8235C141.244 42.8235 140.917 42.8235 140.536 42.7686C140.155 42.7686 139.774 42.7137 139.393 42.7137C139.011 42.7137 138.685 42.7137 138.413 42.7137C138.031 42.7137 137.65 42.549 137.269 42.2196C136.888 41.8902 136.507 41.451 136.18 40.902L132.042 34.5882ZM131.661 33.2157C132.205 33.2157 132.695 33.1608 133.185 33.051C133.621 32.9412 134.002 32.7765 134.329 32.502C134.655 32.2274 134.873 31.898 135.091 31.4039C135.254 30.9647 135.363 30.4157 135.363 29.702C135.363 28.549 135.091 27.6157 134.547 26.9569C134.002 26.298 133.076 25.9686 131.715 25.9686H130.898V33.2157H131.661Z" fill="#323232"/>
<path d="M149.248 40.6274C149.248 40.7921 149.248 40.9569 149.303 41.0667C149.303 41.1765 149.412 41.2863 149.521 41.3961C149.629 41.5059 149.793 41.5608 150.011 41.6157C150.228 41.6706 150.555 41.7255 150.936 41.7804C151.1 41.8353 151.208 42 151.208 42.2745C151.208 42.3294 151.208 42.4392 151.208 42.549C151.208 42.6588 151.208 42.7686 151.154 42.8235C150.555 42.7686 149.956 42.7686 149.303 42.7137C148.649 42.6588 148.05 42.6588 147.56 42.6588C147.016 42.6588 146.471 42.6588 145.818 42.7137C145.164 42.7686 144.566 42.7686 143.967 42.8235C143.912 42.7686 143.912 42.6588 143.912 42.549C143.912 42.4392 143.912 42.3294 143.912 42.2745C143.912 42 144.021 41.8353 144.184 41.7804C144.566 41.7255 144.838 41.6706 145.11 41.6157C145.328 41.5608 145.491 41.451 145.6 41.3961C145.709 41.2863 145.763 41.1765 145.818 41.0667C145.872 40.9569 145.872 40.7921 145.872 40.6274V26.6274C145.872 26.4627 145.872 26.298 145.818 26.1882C145.763 26.0784 145.709 25.9686 145.6 25.8588C145.491 25.749 145.328 25.6941 145.11 25.6392C144.892 25.5843 144.566 25.5294 144.184 25.4745C144.021 25.4196 143.912 25.2549 143.912 24.9804C143.912 24.9255 143.912 24.8157 143.912 24.7059C143.912 24.5961 143.912 24.4863 143.967 24.3765C144.566 24.4314 145.164 24.4314 145.818 24.4863C146.471 24.5412 147.07 24.5412 147.56 24.5412C148.05 24.5412 148.649 24.5412 149.303 24.4863C149.956 24.4314 150.555 24.4314 151.154 24.3765C151.154 24.4863 151.208 24.5961 151.208 24.7059C151.208 24.8157 151.208 24.9255 151.208 24.9804C151.208 25.2549 151.1 25.4196 150.936 25.4745C150.555 25.5294 150.283 25.5843 150.011 25.6392C149.793 25.6941 149.629 25.8039 149.521 25.8588C149.412 25.9686 149.357 26.0784 149.303 26.1882C149.303 26.298 149.248 26.4627 149.248 26.6274V40.6274Z" fill="#323232"/>
<path d="M162.752 25.9687V40.6275C162.752 40.7922 162.752 40.9569 162.806 41.0667C162.806 41.1765 162.915 41.2863 163.024 41.3961C163.133 41.5059 163.296 41.5608 163.46 41.6157C163.677 41.6706 163.95 41.7255 164.276 41.7804C164.549 41.8353 164.658 42 164.658 42.2745C164.658 42.3294 164.658 42.4392 164.658 42.549C164.658 42.6588 164.658 42.7687 164.603 42.8236C164.004 42.7687 163.405 42.7687 162.752 42.7138C162.098 42.6588 161.499 42.6588 161.009 42.6588C160.465 42.6588 159.92 42.6588 159.267 42.7138C158.614 42.7687 158.015 42.7687 157.47 42.8236C157.416 42.7687 157.416 42.6588 157.416 42.549C157.416 42.4392 157.416 42.3294 157.416 42.2745C157.416 42.1647 157.416 42.0549 157.47 41.9451C157.525 41.8353 157.633 41.7804 157.851 41.7804C158.505 41.6706 158.94 41.5608 159.104 41.3961C159.267 41.2314 159.376 40.9569 159.376 40.6275V25.9687H157.035C156.544 25.9687 156.109 26.0236 155.782 26.1334C155.455 26.2432 155.129 26.4079 154.857 26.6275C154.584 26.8471 154.366 27.1216 154.149 27.451C153.931 27.7804 153.713 28.2196 153.495 28.7137C153.441 28.8785 153.277 28.9883 153.114 28.9883C153.005 28.9883 152.896 28.9883 152.733 28.9334C152.57 28.8785 152.461 28.8236 152.406 28.8236C152.515 28.3843 152.624 28 152.733 27.6157C152.842 27.2863 152.896 26.9569 152.951 26.5726C153.005 26.1334 153.06 25.749 153.114 25.4196C153.169 25.0902 153.169 24.8157 153.223 24.7059C153.277 24.5412 153.441 24.4314 153.659 24.4314C153.876 24.4314 154.258 24.4863 154.802 24.5412C155.401 24.5961 156.109 24.651 156.926 24.651H165.202C166.019 24.651 166.727 24.5961 167.271 24.5412C167.87 24.4863 168.251 24.4314 168.469 24.4314C168.687 24.4314 168.796 24.5412 168.905 24.7059C168.959 24.8706 169.014 25.0902 169.014 25.4196C169.014 25.749 169.122 26.1334 169.177 26.5726C169.231 26.902 169.286 27.2314 169.395 27.6157C169.449 27.9451 169.613 28.3294 169.721 28.8236C169.613 28.8785 169.504 28.8785 169.395 28.9334C169.286 28.9883 169.122 28.9883 169.014 28.9883C168.796 28.9883 168.687 28.8785 168.578 28.7137C168.36 28.2196 168.142 27.8353 167.925 27.451C167.707 27.1216 167.489 26.8471 167.217 26.6275C166.944 26.4079 166.672 26.2432 166.291 26.1334C165.964 26.0236 165.529 25.9687 165.039 25.9687H162.752Z" fill="#323232"/>
<path d="M181.319 25.9687V40.6275C181.319 40.7922 181.319 40.9569 181.374 41.0667C181.374 41.1765 181.483 41.2863 181.592 41.3961C181.701 41.5059 181.864 41.5608 182.027 41.6157C182.245 41.6706 182.517 41.7255 182.844 41.7804C183.116 41.8353 183.225 42 183.225 42.2745C183.225 42.3294 183.225 42.4392 183.225 42.549C183.225 42.6588 183.225 42.7687 183.171 42.8236C182.572 42.7687 181.973 42.7687 181.319 42.7138C180.666 42.6588 180.067 42.6588 179.577 42.6588C179.033 42.6588 178.488 42.6588 177.835 42.7138C177.181 42.7687 176.582 42.7687 176.038 42.8236C175.983 42.7687 175.983 42.6588 175.983 42.549C175.983 42.4392 175.983 42.3294 175.983 42.2745C175.983 42.1647 175.983 42.0549 176.038 41.9451C176.092 41.8353 176.201 41.7804 176.419 41.7804C177.072 41.6706 177.508 41.5608 177.671 41.3961C177.835 41.2314 177.944 40.9569 177.944 40.6275V25.9687H175.602C175.112 25.9687 174.677 26.0236 174.35 26.1334C174.023 26.2432 173.696 26.4079 173.424 26.6275C173.152 26.8471 172.934 27.1216 172.716 27.451C172.498 27.7804 172.281 28.2196 172.063 28.7137C172.008 28.8785 171.845 28.9883 171.682 28.9883C171.573 28.9883 171.464 28.9883 171.301 28.9334C171.137 28.8785 171.028 28.8236 170.974 28.8236C171.083 28.3843 171.192 28 171.301 27.6157C171.409 27.2863 171.464 26.9569 171.518 26.5726C171.573 26.1334 171.627 25.749 171.682 25.4196C171.736 25.0902 171.736 24.8157 171.791 24.7059C171.845 24.5412 172.008 24.4314 172.226 24.4314C172.444 24.4314 172.825 24.4863 173.37 24.5412C173.969 24.5961 174.676 24.651 175.493 24.651H183.77C184.586 24.651 185.294 24.5961 185.839 24.5412C186.438 24.4863 186.819 24.4314 187.037 24.4314C187.255 24.4314 187.363 24.5412 187.472 24.7059C187.527 24.8706 187.581 25.0902 187.581 25.4196C187.581 25.749 187.69 26.1334 187.745 26.5726C187.799 26.902 187.853 27.2314 187.962 27.6157C188.017 27.9451 188.18 28.3294 188.289 28.8236C188.18 28.8785 188.071 28.8785 187.962 28.9334C187.853 28.9883 187.69 28.9883 187.581 28.9883C187.363 28.9883 187.255 28.8785 187.146 28.7137C186.928 28.2196 186.71 27.8353 186.492 27.451C186.274 27.1216 186.057 26.8471 185.784 26.6275C185.512 26.4079 185.24 26.2432 184.859 26.1334C184.532 26.0236 184.096 25.9687 183.606 25.9687H181.319Z" fill="#323232"/>
<path d="M0.48999 55.451V49.1921H1.47009V55.451H0.48999Z" fill="#323232"/>
<path d="M5.28162 51.0588V55.451H4.30151V49.1921H5.06382L8.60308 53.6941V49.1921H9.58319V55.451H8.76643L5.28162 51.0588Z" fill="#323232"/>
<path d="M16.934 50.0706H14.8649V55.451H13.8848V50.0706H11.8157V49.1921H16.934V50.0706Z" fill="#323232"/>
<path d="M23.4681 54.5725V55.451H19.2209V49.1921H23.4136V50.0706H20.201V51.8274H22.978V52.651H20.201V54.5725H23.4681Z" fill="#323232"/>
<path d="M25.9182 55.451V49.1921H28.6407C28.913 49.1921 29.1852 49.247 29.403 49.3568C29.6208 49.4667 29.8386 49.6314 30.002 49.7961C30.1653 49.9608 30.3287 50.1804 30.3831 50.4549C30.492 50.6745 30.5465 50.949 30.5465 51.2235C30.5465 51.4431 30.492 51.6627 30.4376 51.8274C30.3831 52.047 30.2742 52.2117 30.2198 52.3765C30.1109 52.5412 30.002 52.7059 29.8386 52.8157C29.6753 52.9255 29.5119 53.0353 29.3486 53.0902L30.8187 55.451H29.7297L28.314 53.2549H26.8983V55.451H25.9182ZM26.8983 52.3765H28.5863C28.7496 52.3765 28.8585 52.3215 28.9674 52.2666C29.0763 52.2117 29.1852 52.1019 29.2397 51.9921C29.2941 51.8823 29.403 51.7725 29.4575 51.6078C29.5119 51.4431 29.5119 51.3333 29.5119 51.1686C29.5119 51.0039 29.4575 50.8392 29.403 50.7294C29.3486 50.5647 29.2941 50.4549 29.1852 50.3451C29.0763 50.2353 28.9674 50.1804 28.8585 50.0706C28.7496 50.0157 28.6407 49.9608 28.4774 49.9608H26.7894V52.3765H26.8983Z" fill="#323232"/>
<path d="M34.1403 51.0588V55.451H33.1602V49.1921H33.9225L37.4617 53.6941V49.1921H38.4418V55.451H37.6251L34.1403 51.0588Z" fill="#323232"/>
<path d="M40.6199 55.451L43.1246 49.1921H43.9413L46.4461 55.451H45.4115L44.7581 53.749H42.3623L41.7089 55.451H40.6199ZM43.5057 50.2902L42.4712 53.0353H44.4858L43.5057 50.2902Z" fill="#323232"/>
<path d="M52.5446 50.0706H50.4755V55.451H49.4954V50.0706H47.4263V49.1921H52.5446V50.0706Z" fill="#323232"/>
<path d="M54.7769 55.451V49.1921H55.757V55.451H54.7769Z" fill="#323232"/>
<path d="M61.0931 55.5058C60.6575 55.5058 60.2764 55.396 59.8952 55.2313C59.5141 55.0666 59.2418 54.7921 58.9696 54.5176C58.6973 54.2431 58.534 53.8588 58.3706 53.4745C58.2073 53.0901 58.1528 52.7058 58.1528 52.3215C58.1528 51.8823 58.2073 51.498 58.3706 51.1137C58.534 50.7294 58.7518 50.4 58.9696 50.1254C59.2418 49.8509 59.5685 49.5764 59.8952 49.4117C60.2764 49.247 60.6575 49.1372 61.0931 49.1372C61.5287 49.1372 61.9099 49.247 62.291 49.4117C62.6722 49.5764 62.9445 49.8509 63.2167 50.1254C63.489 50.4 63.6523 50.7843 63.8157 51.1686C63.979 51.5529 64.0335 51.9372 64.0335 52.3215C64.0335 52.7607 63.979 53.145 63.8157 53.5294C63.6523 53.9137 63.489 54.2431 63.2167 54.5176C62.9445 54.7921 62.6177 55.0666 62.291 55.2313C61.9099 55.396 61.5287 55.5058 61.0931 55.5058ZM59.1874 52.3215C59.1874 52.596 59.2418 52.9254 59.2963 53.2C59.4052 53.4745 59.5141 53.6941 59.6774 53.9137C59.8408 54.1333 60.0586 54.298 60.2764 54.4078C60.4942 54.5176 60.7664 54.5725 61.0931 54.5725C61.4198 54.5725 61.6921 54.5176 61.9099 54.3529C62.1277 54.2431 62.3455 54.0235 62.5089 53.8039C62.6722 53.5843 62.7811 53.3647 62.89 53.0901C62.9989 52.8156 62.9989 52.5411 62.9989 52.2666C62.9989 51.9921 62.9444 51.6627 62.8355 51.3882C62.7266 51.1137 62.6177 50.8941 62.4544 50.6745C62.291 50.4549 62.0733 50.2901 61.8554 50.1803C61.6376 50.0705 61.3654 50.0156 61.0387 50.0156C60.712 50.0156 60.4397 50.0705 60.2219 50.2352C60.0041 50.345 59.7863 50.5647 59.623 50.7294C59.4596 50.949 59.3507 51.1686 59.2418 51.4431C59.1329 51.7176 59.1874 52.047 59.1874 52.3215Z" fill="#323232"/>
<path d="M67.464 51.0588V55.451H66.4839V49.1921H67.2462L70.7855 53.6941V49.1921H71.7656V55.451H70.9488L67.464 51.0588Z" fill="#323232"/>
<path d="M73.9434 55.451L76.4481 49.1921H77.2648L79.7695 55.451H78.735L78.0816 53.749H75.6858L75.0324 55.451H73.9434ZM76.8292 50.2902L75.7947 53.0353H77.8093L76.8292 50.2902Z" fill="#323232"/>
<path d="M81.8931 55.451V49.1921H82.8732V54.5725H86.1946V55.451H81.8931Z" fill="#323232"/>
<path d="M92.8921 55.451V49.1921H95.5057C95.7779 49.1921 96.0502 49.247 96.268 49.3568C96.4858 49.4667 96.7036 49.6314 96.867 49.7961C97.0303 49.9608 97.1937 50.1804 97.2481 50.4549C97.357 50.6745 97.4115 50.949 97.4115 51.2235C97.4115 51.498 97.357 51.7176 97.3026 51.9921C97.1937 52.2117 97.0848 52.4314 96.9214 52.651C96.7581 52.8157 96.5402 52.9804 96.3224 53.0902C96.1046 53.2 95.8324 53.2549 95.5601 53.2549H93.8722V55.451H92.8921ZM93.8722 52.3765H95.5057C95.669 52.3765 95.778 52.3215 95.8869 52.2666C95.9958 52.2117 96.1047 52.1019 96.1591 52.047C96.2136 51.9372 96.3225 51.8274 96.3769 51.6627C96.4314 51.498 96.4314 51.3882 96.4314 51.1686C96.4314 51.0039 96.4314 50.8392 96.3769 50.6745C96.3225 50.5098 96.268 50.4 96.1591 50.2902C96.0502 50.1804 95.9413 50.1255 95.8324 50.0706C95.7235 50.0157 95.6146 49.9608 95.4512 49.9608H93.8722V52.3765Z" fill="#323232"/>
<path d="M99.6985 55.451V49.1921H102.421C102.693 49.1921 102.965 49.247 103.183 49.3568C103.401 49.4667 103.619 49.6314 103.782 49.7961C103.946 49.9608 104.109 50.1804 104.163 50.4549C104.272 50.6745 104.327 50.949 104.327 51.2235C104.327 51.4431 104.272 51.6627 104.218 51.8274C104.163 52.047 104.055 52.2117 104 52.3765C103.891 52.5412 103.782 52.7059 103.619 52.8157C103.456 52.9255 103.292 53.0353 103.129 53.0902L104.599 55.451H103.51L102.149 53.2549H100.733V55.451H99.6985ZM100.679 52.3765H102.367C102.53 52.3765 102.639 52.3215 102.748 52.2666C102.857 52.2117 102.965 52.1019 103.02 51.9921C103.074 51.8823 103.183 51.7725 103.238 51.6078C103.292 51.4431 103.292 51.3333 103.292 51.1686C103.292 51.0039 103.238 50.8392 103.183 50.7294C103.129 50.5647 103.074 50.4549 102.965 50.3451C102.857 50.2353 102.748 50.1804 102.639 50.0706C102.53 50.0157 102.421 49.9608 102.258 49.9608H100.57V52.3765H100.679Z" fill="#323232"/>
<path d="M109.445 55.5058C109.009 55.5058 108.628 55.396 108.247 55.2313C107.866 55.0666 107.594 54.7921 107.321 54.5176C107.049 54.2431 106.886 53.8588 106.722 53.4745C106.559 53.0901 106.505 52.7058 106.505 52.3215C106.505 51.8823 106.559 51.498 106.722 51.1137C106.886 50.7294 107.104 50.4 107.321 50.1254C107.594 49.8509 107.92 49.5764 108.247 49.4117C108.628 49.247 109.009 49.1372 109.445 49.1372C109.881 49.1372 110.262 49.247 110.643 49.4117C111.024 49.5764 111.296 49.8509 111.569 50.1254C111.841 50.4 112.004 50.7843 112.167 51.1686C112.331 51.5529 112.385 51.9372 112.385 52.3215C112.385 52.7607 112.331 53.145 112.167 53.5294C112.004 53.9137 111.841 54.2431 111.569 54.5176C111.296 54.7921 110.97 55.0666 110.643 55.2313C110.262 55.396 109.881 55.5058 109.445 55.5058ZM107.539 52.3215C107.539 52.596 107.594 52.9254 107.648 53.2C107.757 53.4745 107.866 53.6941 108.029 53.9137C108.193 54.1333 108.41 54.298 108.628 54.4078C108.846 54.5176 109.118 54.5725 109.445 54.5725C109.772 54.5725 110.044 54.5176 110.262 54.3529C110.48 54.2431 110.697 54.0235 110.861 53.8039C111.024 53.5843 111.133 53.3647 111.242 53.0901C111.351 52.8156 111.351 52.5411 111.351 52.2666C111.351 51.9921 111.296 51.6627 111.187 51.3882C111.078 51.1137 110.97 50.8941 110.806 50.6745C110.643 50.4549 110.425 50.2901 110.207 50.1803C109.989 50.0705 109.717 50.0156 109.39 50.0156C109.064 50.0156 108.792 50.0705 108.574 50.2352C108.356 50.345 108.138 50.5647 107.975 50.7294C107.811 50.949 107.703 51.1686 107.594 51.4431C107.485 51.7176 107.539 52.047 107.539 52.3215Z" fill="#323232"/>
<path d="M114.836 55.451V49.1921H117.449C117.722 49.1921 117.994 49.247 118.212 49.3568C118.429 49.4667 118.647 49.6314 118.811 49.7961C118.974 49.9608 119.137 50.1804 119.192 50.4549C119.301 50.6745 119.355 50.949 119.355 51.2235C119.355 51.498 119.301 51.7176 119.246 51.9921C119.137 52.2117 119.028 52.4314 118.865 52.651C118.702 52.8157 118.484 52.9804 118.266 53.0902C118.048 53.2 117.776 53.2549 117.504 53.2549H115.816V55.451H114.836ZM115.816 52.3765H117.449C117.613 52.3765 117.722 52.3215 117.83 52.2666C117.939 52.2117 118.048 52.1019 118.103 52.047C118.157 51.9372 118.266 51.8274 118.321 51.6627C118.375 51.498 118.375 51.3882 118.375 51.1686C118.375 51.0039 118.375 50.8392 118.321 50.6745C118.266 50.5098 118.212 50.4 118.103 50.2902C117.994 50.1804 117.885 50.1255 117.776 50.0706C117.667 50.0157 117.558 49.9608 117.395 49.9608H115.816V52.3765Z" fill="#323232"/>
<path d="M125.943 54.5725V55.451H121.696V49.1921H125.889V50.0706H122.676V51.8274H125.453V52.651H122.676V54.5725H125.943Z" fill="#323232"/>
<path d="M128.394 55.451V49.1921H131.116C131.389 49.1921 131.661 49.247 131.879 49.3568C132.096 49.4667 132.314 49.6314 132.478 49.7961C132.641 49.9608 132.804 50.1804 132.859 50.4549C132.968 50.6745 133.022 50.949 133.022 51.2235C133.022 51.4431 132.968 51.6627 132.913 51.8274C132.859 52.047 132.75 52.2117 132.695 52.3765C132.586 52.5412 132.478 52.7059 132.314 52.8157C132.151 52.9255 131.988 53.0353 131.824 53.0902L133.294 55.451H132.205L130.844 53.2549H129.428V55.451H128.394ZM129.374 52.3765H131.062C131.225 52.3765 131.334 52.3215 131.443 52.2666C131.552 52.2117 131.661 52.1019 131.715 51.9921C131.77 51.8823 131.879 51.7725 131.933 51.6078C131.988 51.4431 131.988 51.3333 131.988 51.1686C131.988 51.0039 131.933 50.8392 131.879 50.7294C131.824 50.5647 131.77 50.4549 131.661 50.3451C131.552 50.2353 131.443 50.1804 131.334 50.0706C131.225 50.0157 131.116 49.9608 130.953 49.9608H129.265V52.3765H129.374Z" fill="#323232"/>
<path d="M140.046 50.0706H137.977V55.451H136.997V50.0706H134.928V49.1921H140.046V50.0706Z" fill="#323232"/>
<path d="M142.66 49.1921L144.402 52.3216L146.145 49.1921H147.234L144.947 53.2V55.451H143.967V53.2L141.68 49.1921H142.66Z" fill="#323232"/>
<path d="M157.307 54.6823C156.817 55.2313 156.218 55.5058 155.51 55.5058C155.129 55.5058 154.748 55.396 154.366 55.2313C154.04 55.0666 153.713 54.7921 153.441 54.5176C153.169 54.2431 152.951 53.8588 152.842 53.4745C152.678 53.0901 152.624 52.7058 152.624 52.2666C152.624 51.8274 152.678 51.4431 152.842 51.0588C153.005 50.6745 153.169 50.345 153.441 50.0705C153.713 49.796 153.985 49.5764 154.366 49.4117C154.748 49.247 155.129 49.1372 155.51 49.1372C156.109 49.1372 156.599 49.247 156.98 49.5215C157.361 49.796 157.688 50.1254 157.906 50.5098L157.143 51.0588C156.98 50.7294 156.762 50.4549 156.436 50.2901C156.163 50.1254 155.837 50.0156 155.455 50.0156C155.183 50.0156 154.911 50.0705 154.693 50.1803C154.475 50.2901 154.258 50.4549 154.094 50.6745C153.931 50.8941 153.822 51.1137 153.713 51.3882C153.604 51.6627 153.604 51.9372 153.604 52.2666C153.604 52.596 153.659 52.8705 153.767 53.1451C153.876 53.4196 153.985 53.6392 154.203 53.8588C154.366 54.0784 154.584 54.2431 154.802 54.3529C155.02 54.4627 155.292 54.5176 155.564 54.5176C156.218 54.5176 156.762 54.1882 157.252 53.5843V52.9254H155.945V52.2117H158.069V55.396H157.252V54.6823H157.307Z" fill="#323232"/>
<path d="M160.628 55.451V49.1921H163.351C163.623 49.1921 163.895 49.247 164.113 49.3568C164.331 49.4667 164.549 49.6314 164.712 49.7961C164.875 49.9608 165.039 50.1804 165.093 50.4549C165.202 50.6745 165.256 50.949 165.256 51.2235C165.256 51.4431 165.202 51.6627 165.148 51.8274C165.093 52.047 164.984 52.2117 164.93 52.3765C164.821 52.5412 164.712 52.7059 164.549 52.8157C164.385 52.9255 164.222 53.0353 164.059 53.0902L165.529 55.451H164.44L163.078 53.2549H161.663V55.451H160.628ZM161.608 52.3765H163.296C163.46 52.3765 163.568 52.3215 163.677 52.2666C163.786 52.2117 163.895 52.1019 163.95 51.9921C164.004 51.8823 164.113 51.7725 164.167 51.6078C164.222 51.4431 164.222 51.3333 164.222 51.1686C164.222 51.0039 164.167 50.8392 164.113 50.7294C164.059 50.5647 164.004 50.4549 163.895 50.3451C163.786 50.2353 163.677 50.1804 163.568 50.0706C163.46 50.0157 163.351 49.9608 163.187 49.9608H161.499V52.3765H161.608Z" fill="#323232"/>
<path d="M170.375 55.5058C169.939 55.5058 169.558 55.396 169.177 55.2313C168.796 55.0666 168.524 54.7921 168.251 54.5176C167.979 54.2431 167.816 53.8588 167.652 53.4745C167.489 53.0901 167.435 52.7058 167.435 52.3215C167.435 51.8823 167.489 51.498 167.652 51.1137C167.816 50.7294 168.034 50.4 168.251 50.1254C168.524 49.8509 168.85 49.5764 169.177 49.4117C169.558 49.247 169.939 49.1372 170.375 49.1372C170.81 49.1372 171.192 49.247 171.573 49.4117C171.954 49.5764 172.226 49.8509 172.498 50.1254C172.771 50.4 172.934 50.7843 173.097 51.1686C173.261 51.5529 173.315 51.9372 173.315 52.3215C173.315 52.7607 173.261 53.145 173.097 53.5294C172.934 53.9137 172.771 54.2431 172.498 54.5176C172.226 54.7921 171.899 55.0666 171.573 55.2313C171.192 55.396 170.81 55.5058 170.375 55.5058ZM168.469 52.3215C168.469 52.596 168.524 52.9254 168.578 53.2C168.687 53.4745 168.796 53.6941 168.959 53.9137C169.123 54.1333 169.34 54.298 169.558 54.4078C169.776 54.5176 170.048 54.5725 170.375 54.5725C170.702 54.5725 170.974 54.5176 171.192 54.3529C171.409 54.2431 171.627 54.0235 171.791 53.8039C171.954 53.5843 172.063 53.3647 172.172 53.0901C172.281 52.8156 172.281 52.5411 172.281 52.2666C172.281 51.9921 172.226 51.6627 172.117 51.3882C172.008 51.1137 171.899 50.8941 171.736 50.6745C171.573 50.4549 171.355 50.2901 171.137 50.1803C170.919 50.0705 170.647 50.0156 170.32 50.0156C169.994 50.0156 169.721 50.0705 169.504 50.2352C169.286 50.345 169.068 50.5647 168.905 50.7294C168.741 50.949 168.632 51.1686 168.524 51.4431C168.524 51.7725 168.469 52.047 168.469 52.3215Z" fill="#323232"/>
<path d="M178.325 54.5725C178.651 54.5725 178.924 54.5176 179.141 54.3529C179.359 54.2431 179.522 54.0784 179.686 53.8587C179.795 53.6391 179.904 53.4195 179.958 53.145C180.013 52.8705 180.067 52.596 180.067 52.3215V49.1372H181.047V52.3215C181.047 52.7607 180.993 53.145 180.884 53.5293C180.775 53.9136 180.611 54.2431 180.394 54.5176C180.176 54.7921 179.904 55.0117 179.577 55.1764C179.25 55.3411 178.815 55.396 178.325 55.396C177.834 55.396 177.399 55.2862 177.072 55.1215C176.746 54.9568 176.473 54.7372 176.255 54.4078C176.038 54.1333 175.874 53.8038 175.82 53.4195C175.711 53.0352 175.656 52.6509 175.656 52.2666V49.0823H176.637V52.2666C176.637 52.5411 176.637 52.8156 176.745 53.0901C176.8 53.3646 176.909 53.5842 177.018 53.8038C177.127 54.0235 177.344 54.1882 177.562 54.298C177.726 54.5176 177.998 54.5725 178.325 54.5725Z" fill="#323232"/>
<path d="M183.715 55.451V49.1921H186.329C186.601 49.1921 186.873 49.247 187.091 49.3568C187.309 49.4667 187.527 49.6314 187.69 49.7961C187.853 49.9608 188.017 50.1804 188.071 50.4549C188.18 50.6745 188.234 50.949 188.234 51.2235C188.234 51.498 188.18 51.7176 188.126 51.9921C188.017 52.2117 187.908 52.4314 187.744 52.651C187.581 52.8157 187.363 52.9804 187.145 53.0902C186.928 53.2 186.655 53.2549 186.383 53.2549H184.695V55.451H183.715ZM184.695 52.3765H186.329C186.492 52.3765 186.601 52.3215 186.71 52.2666C186.819 52.2117 186.928 52.1019 186.982 52.047C187.037 51.9372 187.145 51.8274 187.2 51.6627C187.254 51.498 187.254 51.3882 187.254 51.1686C187.254 51.0039 187.254 50.8392 187.2 50.6745C187.145 50.5098 187.091 50.4 186.982 50.2902C186.873 50.1804 186.764 50.1255 186.655 50.0706C186.546 50.0157 186.438 49.9608 186.274 49.9608H184.695V52.3765Z" fill="#323232"/>
<path d="M208 0H140.591H125.018C200.105 5.21569 207.728 17.898 208 18.3922V0Z" fill="#323232"/>
<path d="M208 0H153.114C153.659 0.054902 197.11 4.72157 208 14.3843V0Z" fill="#E00034"/>
</svg>
